<svg id="svg" version="1.1" xmlns="http://www.w3.org/2000/svg" viewBox="0 0 286 317" style="display: block;"><path d="M0 0 C94.38 0 188.76 0 286 0 C286 104.61 286 209.22 286 317 C191.62 317 97.24 317 0 317 C0 212.39 0 107.78 0 0 Z " transform="translate(0,0)" style="fill: #22334E;"/><path d="M0 0 C3.52024404 1.60862482 6.31404733 3.9127408 9.24609375 6.390625 C10.58712552 7.49391107 11.92962826 8.59541111 13.2734375 9.6953125 C13.96808105 10.26604492 14.66272461 10.83677734 15.37841797 11.42480469 C18.79868918 14.19603666 22.3015689 16.8556151 25.80859375 19.515625 C31.81544585 24.08482798 37.79338175 28.6885853 43.74609375 33.328125 C50.97459102 38.9607403 58.22563803 44.56227022 65.49609375 50.140625 C72.84912803 55.78233928 80.18320816 61.44696113 87.49609375 67.140625 C97.43979541 74.88169387 107.39061758 82.61105452 117.49609375 90.140625 C106.37353668 108.98354521 84.16253613 120.88491457 64.43359375 129.140625 C63.74362305 129.43146973 63.05365234 129.72231445 62.34277344 130.02197266 C56.21006375 132.48550153 51.19477268 134.00478818 44.78125 131.5859375 C43.03142958 130.83293278 41.29078946 130.05833279 39.55859375 129.265625 C38.17414063 128.64868774 38.17414063 128.64868774 36.76171875 128.01928711 C10.52820923 116.12032234 -12.6072798 99.92251971 -23.50390625 72.140625 C-24.39556036 69.12120484 -24.66413536 66.35139727 -24.74438477 63.20776367 C-24.78300377 61.74055122 -24.78300377 61.74055122 -24.82240295 60.24369812 C-24.90700643 55.78296426 -24.97238215 51.32238051 -25.01879883 46.86108398 C-25.05046842 44.51087531 -25.0982527 42.1608271 -25.16235352 39.8112793 C-25.25370926 36.41394288 -25.29242541 33.01947374 -25.3203125 29.62109375 C-25.35846573 28.576082 -25.39661896 27.53107025 -25.43592834 26.45439148 C-25.41690829 19.29427292 -25.41690829 19.29427292 -22.79640198 15.98306274 C-20.77726021 14.20230797 -18.71904225 12.66689762 -16.50390625 11.140625 C-15.27124209 10.11082074 -14.04685977 9.07090932 -12.8359375 8.015625 C-11.66449526 7.05517181 -10.49133496 6.09681001 -9.31640625 5.140625 C-8.43178711 4.38845703 -8.43178711 4.38845703 -7.52929688 3.62109375 C-5.04028893 1.61106064 -3.25411598 0.18275846 0 0 Z " transform="translate(91.50390625,91.859375)" style="fill: #22344F;"/><path d="M0 0 C4.29 0 8.58 0 13 0 C12.99045288 1.99764404 12.99045288 1.99764404 12.98071289 4.03564453 C12.96625312 8.98971447 12.99765512 13.94262776 13.04272461 18.89648438 C13.05584216 21.03804586 13.05661896 23.17972069 13.04467773 25.32128906 C13.02964363 28.40542735 13.05938096 31.48643082 13.09765625 34.5703125 C13.08340103 35.52366486 13.06914581 36.47701721 13.05445862 37.45925903 C13.135462 41.20140176 13.22402258 43.91608409 15.44259644 47.01507568 C18.09635479 49.51853308 19.89981264 50.96208032 23.59960938 51.08959961 C26.42401726 49.80752756 28.85282311 48.3335645 31.40625 46.56640625 C32.458125 45.84469238 33.51 45.12297852 34.59375 44.37939453 C35.72969123 43.5870145 36.86509484 42.79386327 38 42 C39.17684041 41.1817794 40.35392748 40.36391347 41.53125 39.54638672 C42.12679687 39.13238617 42.72234375 38.71838562 43.3359375 38.2918396 C45.77161085 36.599878 48.20960286 34.9112781 50.6484375 33.22387695 C51.90002989 32.3543305 53.14866243 31.48051063 54.39453125 30.6027832 C56.22384716 29.31577614 58.06364914 28.04522968 59.90625 26.77734375 C60.98197266 26.02702881 62.05769531 25.27671387 63.16601562 24.50366211 C66 23 66 23 68.14550781 23.09277344 C70.24626718 24.1204751 71.93750416 25.27620451 73.765625 26.73828125 C74.48250488 27.30498535 75.19938477 27.87168945 75.93798828 28.45556641 C77.08243408 29.37474854 77.08243408 29.37474854 78.25 30.3125 C79.87669443 31.59880756 81.50431606 32.88394334 83.1328125 34.16796875 C83.95040039 34.81427246 84.76798828 35.46057617 85.61035156 36.12646484 C88.43691563 38.34255114 91.29369698 40.51378687 94.17089844 42.66357422 C95.47406132 43.63817854 96.77162649 44.62031264 98.06347656 45.60986328 C101.46805453 48.2013439 104.90028276 50.58831831 108.5546875 52.81640625 C119.23664773 59.57494696 119.23664773 59.57494696 120.6875 64.18408203 C121.357535 69.22504851 120.85117133 74.01119024 120 79 C114.17334006 75.19648587 108.51778127 71.23982103 103 67 C103.02320313 68.09957031 103.04640625 69.19914062 103.0703125 70.33203125 C103.19282418 78.78629396 103.00168622 86.72517216 101 95 C96.28674258 95 94.29467283 94.25622513 90.64990234 91.38085938 C86.7257323 85.71816239 88.51908899 76.57356508 88.96850586 69.95117188 C89.76358351 61.21507726 89.76358351 61.21507726 86.75192261 53.32650757 C83.24343726 49.89862489 79.20645226 47.47827694 75 45 C73.63410148 43.95262478 72.2769151 42.8935369 70.9375 41.8125 C68.3108291 39.78585378 68.3108291 39.78585378 66.16015625 40.16845703 C63.3209509 41.26139707 61.02387502 42.79221859 58.5 44.4921875 C57.448125 45.19730469 56.39625 45.90242188 55.3125 46.62890625 C54.2083104 47.37757035 53.10414395 48.12626858 52 48.875 C50.906875 49.60847656 49.81375 50.34195313 48.6875 51.09765625 C43.14180951 54.78747554 43.14180951 54.78747554 37.78125 58.73486328 C36 60 36 60 34 60 C34 60.66 34 61.32 34 62 C34.87350098 62.40726318 34.87350098 62.40726318 35.76464844 62.82275391 C37.98424534 63.99170282 39.801057 65.28103056 41.765625 66.8359375 C42.48234375 67.39925781 43.1990625 67.96257812 43.9375 68.54296875 C44.700625 69.14753906 45.46375 69.75210938 46.25 70.375 C52.11830007 74.98445505 58.01256356 79.54630976 64 84 C74.47810572 91.80731978 84.8197612 99.80761848 95 108 C89.71263026 126.944052 68.6092052 141.28380633 52.37939453 150.48583984 C42.46601476 155.97338855 32.40257717 161.10387844 21.875 165.3125 C20.78384888 165.75662231 20.78384888 165.75662231 19.6706543 166.2097168 C15.67575176 167.72436954 13.07198278 168.36382198 9 167 C7.91589844 166.65066406 6.83179688 166.30132812 5.71484375 165.94140625 C-10.07721667 160.29053268 -25.48553352 153.00315495 -39 143 C-39.83273438 142.38898438 -40.66546875 141.77796875 -41.5234375 141.1484375 C-55.36610532 130.5371811 -66.47268904 118.33608275 -73 102 C-73.36037354 101.11393066 -73.72074707 100.22786133 -74.09204102 99.31494141 C-77.73288139 89.12881818 -77.45728302 79.37724193 -77.25 68.6875 C-77.22988809 66.86785838 -77.21164568 65.04819509 -77.1953125 63.22851562 C-77.15172555 58.81846474 -77.08296291 54.40947865 -77 50 C-79.06297302 51.58272015 -81.12538949 53.16615676 -83.1875 54.75 C-83.76564453 55.1934375 -84.34378906 55.636875 -84.93945312 56.09375 C-85.50986328 56.53203125 -86.08027344 56.9703125 -86.66796875 57.421875 C-87.23177246 57.85435547 -87.79557617 58.28683594 -88.37646484 58.73242188 C-89.87438771 59.90192797 -91.33935157 61.11332432 -92.80078125 62.328125 C-95 64 -95 64 -97 64 C-97.84607935 58.64821236 -98.53942954 53.28275409 -97 48 C-93.55938267 43.88598967 -89.56930636 41.27838286 -85.08349609 38.40234375 C-81.45584892 35.9606745 -78.16319693 33.11551386 -74.8125 30.3125 C-69.62484794 26.05915498 -64.35164929 22.00948688 -58.8828125 18.12109375 C-52.76477064 13.61960767 -46.90210735 8.77903429 -41 4 C-38.08383413 5.35744869 -35.65337937 6.91744175 -33.12890625 8.90625 C-32.39567139 9.48068848 -31.66243652 10.05512695 -30.90698242 10.64697266 C-29.74646362 11.56422119 -29.74646362 11.56422119 -28.5625 12.5 C-26.94555176 13.7685342 -25.3283625 15.03676124 -23.7109375 16.3046875 C-22.51549316 17.24393066 -22.51549316 17.24393066 -21.29589844 18.20214844 C-18.10920811 20.69755333 -14.90092722 23.1641775 -11.6875 25.625 C-8.09072609 28.38017583 -4.53898756 31.16880995 -1 34 C-0.67 22.78 -0.34 11.56 0 0 Z M-45.58203125 23.66796875 C-46.26716797 24.23193359 -46.95230469 24.79589844 -47.65820312 25.37695312 C-48.36912109 25.97443359 -49.08003906 26.57191406 -49.8125 27.1875 C-50.51181641 27.76564453 -51.21113281 28.34378906 -51.93164062 28.93945312 C-53.96054418 30.61913474 -55.98082616 32.30864 -58 34 C-59.05638672 34.66749268 -60.11277344 35.33498535 -61.20117188 36.02270508 C-63.23600051 37.73455076 -63.92132433 38.67606057 -64.55509949 41.28556824 C-64.77940632 44.19655807 -64.80515711 47.04934841 -64.76171875 49.96875 C-64.76508743 51.04064575 -64.76845612 52.1125415 -64.77192688 53.21691895 C-64.77162809 55.48645825 -64.75638507 57.75603774 -64.72729492 60.02539062 C-64.68794752 63.460926 -64.70649195 66.89253407 -64.73242188 70.328125 C-64.72813645 81.79784271 -64.60353792 91.72429125 -59 102 C-58.52361084 102.91402588 -58.04722168 103.82805176 -57.55639648 104.76977539 C-46.21612526 125.75701253 -24.84993216 138.20583577 -4 148 C-3.35401855 148.31163086 -2.70803711 148.62326172 -2.04248047 148.94433594 C-0.18291519 149.83749435 1.68667591 150.70410217 3.5625 151.5625 C4.63628906 152.05878906 5.71007812 152.55507812 6.81640625 153.06640625 C13.24223027 154.950789 18.86359226 152.56556546 24.8125 150.0625 C25.90739746 149.60387573 25.90739746 149.60387573 27.02441406 149.13598633 C40.89283283 143.1605119 53.40069441 135.65519663 65 126 C65.79148438 125.37222656 66.58296875 124.74445313 67.3984375 124.09765625 C72.08202137 120.25851036 74.91548715 116.1837814 78 111 C65.77246075 101.47098916 65.77246075 101.47098916 53.5 92 C48.31684199 88.02101001 43.15560138 84.01462082 38 80 C30.6871943 74.30623466 23.3530333 68.64171353 16 63 C8.64696424 57.35828458 1.31301079 51.69350464 -6 46 C-16.96797228 37.45845862 -16.96797228 37.45845862 -28 29 C-29.55267578 27.81664062 -29.55267578 27.81664062 -31.13671875 26.609375 C-32.12285156 25.87203125 -33.10898438 25.1346875 -34.125 24.375 C-34.99382812 23.72273438 -35.86265625 23.07046875 -36.7578125 22.3984375 C-40.5961759 20.00447566 -42.38078295 21.0047946 -45.58203125 23.66796875 Z " transform="translate(131,71)" style="fill: #F9FAFA;"/><path d="M0 0 C59.4 0 118.8 0 180 0 C180 26.07 180 52.14 180 79 C178 79 178 79 175.75 76.8125 C174.8425 75.884375 173.935 74.95625 173 74 C171.02 72.35 169.04 70.7 167 69 C167 50.52 167 32.04 167 13 C115.85 13 64.7 13 12 13 C12 26.53 12 40.06 12 54 C1 62 1 62 0 62 C0 41.54 0 21.08 0 0 Z " transform="translate(54,26)" style="fill: #F9FAFA;"/><path d="M0 0 C0.01981934 0.87624023 0.03963867 1.75248047 0.06005859 2.65527344 C0.13904139 5.96556918 0.2257524 9.27548827 0.31738281 12.58544922 C0.35522034 14.00692184 0.39014384 15.42847561 0.421875 16.85009766 C0.80134416 34.62169211 0.80134416 34.62169211 6.6875 51.1875 C7.04271729 51.86820557 7.39793457 52.54891113 7.76391602 53.25024414 C10.64839955 58.6392848 13.87636471 63.47018222 18 68 C18.65355469 68.73347656 19.30710937 69.46695313 19.98046875 70.22265625 C32.45143458 83.46595877 49.56514021 92.38956902 66.0625 99.625 C66.8477002 99.98021729 67.63290039 100.33543457 68.44189453 100.70141602 C75.57651165 103.71274071 80.544914 102.81263228 87.74511719 99.93237305 C88.42735352 99.64531494 89.10958984 99.35825684 89.8125 99.0625 C90.54243164 98.75675049 91.27236328 98.45100098 92.02441406 98.13598633 C109.3339084 90.67785844 124.09205742 80.68942193 138 68 C138.55429688 68.42152344 139.10859375 68.84304687 139.6796875 69.27734375 C140.76636719 70.09912109 140.76636719 70.09912109 141.875 70.9375 C142.95394531 71.75541016 142.95394531 71.75541016 144.0546875 72.58984375 C145.94357079 74.03964624 145.94357079 74.03964624 148 75 C140.35603964 93.49753944 108.35335919 106.12755058 91.69921875 113.3515625 C90.09472585 114.01394752 88.48681705 114.66814205 86.875 115.3125 C85.78384888 115.75662231 85.78384888 115.75662231 84.6706543 116.2097168 C80.67575176 117.72436954 78.07198278 118.36382198 74 117 C72.91589844 116.65066406 71.83179688 116.30132812 70.71484375 115.94140625 C54.92278333 110.29053268 39.51446648 103.00315495 26 93 C25.16726562 92.38898438 24.33453125 91.77796875 23.4765625 91.1484375 C5.11319042 77.07178319 -9.33460095 58.88797752 -12.49829102 35.28198242 C-12.78133406 31.43007123 -12.88893839 27.61161945 -12.9375 23.75 C-13.01162109 22.45320313 -13.08574219 21.15640625 -13.16210938 19.8203125 C-13.2398027 14.16884283 -13.27114193 10.49864105 -9.52001953 6.07617188 C-2.18371897 0 -2.18371897 0 0 0 Z " transform="translate(66,121)" style="fill: #FAFBFB;"/><path d="M0 0 C3.46679688 0.04882812 3.46679688 0.04882812 6.93359375 0.09765625 C10.56295913 7.08850527 13.63261798 14.27607611 16.68359375 21.53515625 C17.19019531 22.73076172 17.69679687 23.92636719 18.21875 25.15820312 C21.93359375 33.96468582 21.93359375 33.96468582 21.93359375 35.09765625 C18.63359375 35.09765625 15.33359375 35.09765625 11.93359375 35.09765625 C11.27359375 33.44765625 10.61359375 31.79765625 9.93359375 30.09765625 C4.65359375 29.76765625 -0.62640625 29.43765625 -6.06640625 29.09765625 C-6.72640625 31.07765625 -7.38640625 33.05765625 -8.06640625 35.09765625 C-11.03640625 35.09765625 -14.00640625 35.09765625 -17.06640625 35.09765625 C-14.70543667 27.51685596 -11.66740233 20.34774639 -8.44140625 13.09765625 C-7.93867187 11.95425781 -7.4359375 10.81085938 -6.91796875 9.6328125 C-2.71381117 0.12825195 -2.71381117 0.12825195 0 0 Z " transform="translate(70.06640625,265.90234375)" style="fill: #F7F8F9;"/><path d="M0 0 C2.97 0 5.94 0 9 0 C9.01458252 0.7113208 9.02916504 1.4226416 9.04418945 2.15551758 C9.11861006 5.37506332 9.21529 8.59356518 9.3125 11.8125 C9.33505859 12.93205078 9.35761719 14.05160156 9.38085938 15.20507812 C9.41630859 16.27822266 9.45175781 17.35136719 9.48828125 18.45703125 C9.51446533 19.44678955 9.54064941 20.43654785 9.56762695 21.45629883 C10.06222852 24.36609764 10.61580053 25.30493649 13 27 C17.07220915 27.52193353 17.07220915 27.52193353 20.65551758 25.82299805 C22.49778506 23.32504793 22.43008805 21.54267184 22.51171875 18.45703125 C22.54716797 17.38388672 22.58261719 16.31074219 22.61914062 15.20507812 C22.64169922 14.08552734 22.66425781 12.96597656 22.6875 11.8125 C22.72166016 10.68134766 22.75582031 9.55019531 22.79101562 8.38476562 C22.87356314 5.5899426 22.94269182 2.79543602 23 0 C25.97 0 28.94 0 32 0 C32.08751413 3.87485635 32.14056435 7.74945643 32.1875 11.625 C32.21263672 12.71941406 32.23777344 13.81382812 32.26367188 14.94140625 C32.32859662 22.08312774 31.81518125 26.74494667 27 32.3125 C22.69295939 35.94656551 17.54054415 35.33311228 12.17578125 35.2734375 C8.01030475 34.91478639 5.92338513 34.00031632 3 31 C-0.61975174 24.64167713 -0.3538208 18.74841142 -0.1875 11.5625 C-0.17396484 10.44939453 -0.16042969 9.33628906 -0.14648438 8.18945312 C-0.11132997 5.45912788 -0.06212106 2.72982256 0 0 Z " transform="translate(95,266)" style="fill: #FAFAFB;"/><path d="M0 0 C3.3 0 6.6 0 10 0 C12.64 7.59 15.28 15.18 18 23 C21.21911463 15.39931269 24.25686061 7.78499895 27 0 C29.97 0 32.94 0 36 0 C33.76690842 7.93823253 30.92333637 15.49213474 27.8125 23.125 C27.11737305 24.84589844 27.11737305 24.84589844 26.40820312 26.6015625 C25.27608834 29.40267125 24.13995466 32.20207482 23 35 C19.7 35 16.4 35 13 35 C11.14648642 30.17699687 9.29512951 25.35317377 7.44580078 20.52856445 C6.81586549 18.88608216 6.18533269 17.2438289 5.55419922 15.60180664 C4.64915746 13.24685104 3.74624052 10.89109054 2.84375 8.53515625 C2.55939087 7.79660904 2.27503174 7.05806183 1.98205566 6.2971344 C0 1.11387171 0 1.11387171 0 0 Z " transform="translate(17,266)" style="fill: #F8F9F9;"/><path d="M0 0 C8.25 0 16.5 0 25 0 C25 2.31 25 4.62 25 7 C19.39 7 13.78 7 8 7 C8 9.64 8 12.28 8 15 C13.28 15 18.56 15 24 15 C24 17.31 24 19.62 24 22 C18.72 22 13.44 22 8 22 C8 26.29 8 30.58 8 35 C5.36 35 2.72 35 0 35 C0 23.45 0 11.9 0 0 Z " transform="translate(208,266)" style="fill: #FEFEFE;"/><path d="M0 0 C3.250112 -0.7959458 5.78631245 -1.02715963 9 0 C12.1104437 3.75281795 16 8.94974619 16 14 C18.85984547 11.48367951 20.41468822 8.66114447 22.1875 5.3125 C22.71730469 4.31863281 23.24710937 3.32476562 23.79296875 2.30078125 C24.19128906 1.54152344 24.58960938 0.78226562 25 0 C27.97 0 30.94 0 34 0 C32.01432292 3.97135417 30.02864583 7.94270833 28.04296875 11.9140625 C27.52416138 12.96231201 27.52416138 12.96231201 26.99487305 14.03173828 C26.13123161 15.74037074 25.21101227 17.42017791 24.28125 19.09375 C22.7951776 22.46459716 22.49965588 25.20674471 22.3125 28.875 C22.24675781 30.02742188 22.18101562 31.17984375 22.11328125 32.3671875 C22.07589844 33.23601562 22.03851563 34.10484375 22 35 C19.03 35 16.06 35 13 35 C12.99814697 34.26934326 12.99629395 33.53868652 12.99438477 32.78588867 C12.67276403 24.2761985 10.26239008 18.55360167 5.9375 11.3125 C4.82065352 9.37164647 3.70471423 7.43027052 2.58984375 5.48828125 C2.09347412 4.64821533 1.59710449 3.80814941 1.08569336 2.94262695 C0 1 0 1 0 0 Z " transform="translate(234,266)" style="fill: #F8F8F9;"/><path d="M0 0 C9.9 0 19.8 0 30 0 C30 2.31 30 4.62 30 7 C26.7 7 23.4 7 20 7 C20 16.24 20 25.48 20 35 C17.03 35 14.06 35 11 35 C11 25.76 11 16.52 11 7 C7.37 7 3.74 7 0 7 C0 4.69 0 2.38 0 0 Z " transform="translate(158,266)" style="fill: #F9FAFA;"/><path d="M0 0 C2.64 0 5.28 0 8 0 C8 9.24 8 18.48 8 28 C12.95 28 17.9 28 23 28 C23 30.31 23 32.62 23 35 C15.41 35 7.82 35 0 35 C0 23.45 0 11.9 0 0 Z " transform="translate(134,266)" style="fill: #FEFEFE;"/><path d="M0 0 C2.64 0 5.28 0 8 0 C8 11.55 8 23.1 8 35 C5.36 35 2.72 35 0 35 C0 23.45 0 11.9 0 0 Z " transform="translate(192,266)" style="fill: #FEFEFE;"/><path d="M0 0 C9.225983 5.06524557 9.225983 5.06524557 12 8 C12.55859375 11.4609375 12.55859375 11.4609375 12.4375 15.375 C12.41558594 16.66148437 12.39367187 17.94796875 12.37109375 19.2734375 C12.01833607 22.81586722 11.27564186 25.69050345 10 29 C8.63552891 28.39963272 7.31252882 27.70674629 6 27 C5.41541016 26.72800781 4.83082031 26.45601562 4.22851562 26.17578125 C2.05719841 24.96524378 0.59278401 23.92185197 -1 22 C-1.73605243 18.16745116 -1.34503723 14.54798905 -0.9375 10.6875 C-0.85822266 9.66076172 -0.77894531 8.63402344 -0.69726562 7.57617188 C-0.49722191 5.0462073 -0.26392554 2.52396661 0 0 Z " transform="translate(221,138)" style="fill: #FAFBFB;"/><path d="M0 0 C11.24260355 4.49704142 11.24260355 4.49704142 15 10 C15.98711392 15.96631288 14.92303365 22.08246917 14 28 C13.67 28 13.34 28 13 28 C13 25.03 13 22.06 13 19 C11.68 18.34 10.36 17.68 9 17 C6.61421815 15.39978047 4.32037937 13.69566184 2 12 C1.67 17.61 1.34 23.22 1 29 C0.67 29 0.34 29 0 29 C0 19.43 0 9.86 0 0 Z " transform="translate(220,127)" style="fill: #9A9DA2;"/><path d="M0 0 C0 13.86 0 27.72 0 42 C-0.33 42 -0.66 42 -1 42 C-1.33 32.1 -1.66 22.2 -2 12 C-5.3 14.64 -8.6 17.28 -12 20 C-12.33 20 -12.66 20 -13 20 C-14.3020567 16.46262052 -14.81740442 13.71091577 -14 10 C-11.35937098 6.83081978 -4.2316098 0 0 0 Z " transform="translate(67,110)" style="fill: #A3A5A9;"/><path d="M0 0 C3.43950364 0.61198376 5.51564485 1.92058847 8.25 4.0625 C8.95640625 4.61035156 9.6628125 5.15820312 10.390625 5.72265625 C11.18726563 6.35494141 11.18726563 6.35494141 12 7 C10.35 9.31 8.7 11.62 7 14 C2.21495828 11.51545911 -0.86077669 9.52048157 -4 5 C-2.68 3.35 -1.36 1.7 0 0 Z " transform="translate(208,183)" style="fill: #A6A8A9;"/><path d="M0 0 C3.3 0 6.6 0 10 0 C10 3.63 10 7.26 10 11 C6.7 11 3.4 11 0 11 C0 7.37 0 3.74 0 0 Z " transform="translate(94,136)" style="fill: #FAFAFB;"/><path d="M0 0 C3.3 0 6.6 0 10 0 C10 3.63 10 7.26 10 11 C6.7 11 3.4 11 0 11 C0 7.37 0 3.74 0 0 Z " transform="translate(81,136)" style="fill: #FAFAFB;"/><path d="M0 0 C3.3 0 6.6 0 10 0 C10 3.63 10 7.26 10 11 C6.7 11 3.4 11 0 11 C0 7.37 0 3.74 0 0 Z " transform="translate(94,123)" style="fill: #FAFAFB;"/><path d="M0 0 C3.3 0 6.6 0 10 0 C10 3.63 10 7.26 10 11 C6.7 11 3.4 11 0 11 C0 7.37 0 3.74 0 0 Z " transform="translate(81,123)" style="fill: #FAFAFB;"/><path d="M0 0 C0.66 0 1.32 0 2 0 C2.6708712 1.6232687 3.33657029 3.24867578 4 4.875 C4.37125 5.77992188 4.7425 6.68484375 5.125 7.6171875 C6 10 6 10 6 12 C2.7 12 -0.6 12 -4 12 C-2.66666667 8 -1.33333333 4 0 0 Z " transform="translate(71,276)" style="fill: #36475F;"/><path d="M0 0 C1.98 0 3.96 0 6 0 C6 1.98 6 3.96 6 6 C4.02 6 2.04 6 0 6 C0 4.02 0 2.04 0 0 Z " transform="translate(199,135)" style="fill: #EDEEF0;"/><path d="M0 0 C1.98 0 3.96 0 6 0 C6 1.98 6 3.96 6 6 C4.02 6 2.04 6 0 6 C0 4.02 0 2.04 0 0 Z " transform="translate(192,135)" style="fill: #EDEEF0;"/><path d="M0 0 C1.98 0 3.96 0 6 0 C6 1.98 6 3.96 6 6 C4.02 6 2.04 6 0 6 C0 4.02 0 2.04 0 0 Z " transform="translate(199,128)" style="fill: #EDEEF0;"/><path d="M0 0 C1.98 0 3.96 0 6 0 C6 1.98 6 3.96 6 6 C4.02 6 2.04 6 0 6 C0 4.02 0 2.04 0 0 Z " transform="translate(192,128)" style="fill: #EDEEF0;"/><path d="M0 0 C0.33 0 0.66 0 1 0 C1 1.98 1 3.96 1 6 C2.98 6 4.96 6 7 6 C7 6.33 7 6.66 7 7 C5.02 7 3.04 7 1 7 C1 8.98 1 10.96 1 13 C0.67 13 0.34 13 0 13 C0 11.02 0 9.04 0 7 C-1.98 7 -3.96 7 -6 7 C-6 6.67 -6 6.34 -6 6 C-4.02 6 -2.04 6 0 6 C0 4.02 0 2.04 0 0 Z " transform="translate(198,128)" style="fill: #556276;"/></svg>